<svg width="77.273926" height="58.000000" viewBox="0 0 77.2739 58" fill="none" xmlns="http://www.w3.org/2000/svg" xmlns:xlink="http://www.w3.org/1999/xlink">
	<desc>
			Created with Pixso.
	</desc>
	<defs/>
	<path id="Vector" d="M75.5933 16.9165L66.5068 16.9165L64.0898 10.6333C61.5767 4.15674 55.2935 0 48.3335 0L29.1934 0C22.2334 0 16.0469 4.15674 13.4365 10.6333L10.9233 16.9165L1.83643 16.9165C0.870117 16.9165 0 17.6899 0 18.7534C0 18.8501 0 19.0435 0.0966797 19.1401L0.966797 22.8135C1.16016 23.5864 1.93311 24.1665 2.70654 24.1665L5.89648 24.1665C3.77002 26.0034 2.51318 28.6133 2.51318 31.4165L2.51318 38.6665C2.51318 40.9868 3.3833 43.21 4.93018 45.0469L4.93018 53.1665C4.93018 55.8735 7.05664 58 9.76318 58L14.5967 58C17.3032 58 19.4302 55.8735 19.4302 53.1665L19.4302 48.3335L58.0967 48.3335L58.0967 53.1665C58.0967 55.8735 60.2231 58 62.9302 58L67.7632 58C70.4702 58 72.5967 55.8735 72.5967 53.1665L72.5967 44.9502C74.1436 43.21 75.0132 40.9868 75.0132 38.5698L75.0132 31.3198C75.0132 28.5166 73.7568 25.9067 71.6299 24.0698L74.6265 24.0698C75.4966 24.0698 76.1733 23.4902 76.3667 22.7168L77.2368 19.0435C77.4302 18.0767 76.8501 17.1099 75.8833 16.8198C75.8833 16.9165 75.7866 16.9165 75.5933 16.9165ZM22.4268 14.21C23.4902 11.4067 26.1968 9.6665 29.1934 9.6665L48.3335 9.6665C51.3301 9.6665 54.0366 11.5034 55.1001 14.21L58.0967 21.75L19.4302 21.75L22.4268 14.21ZM14.5967 38.6665C12.0835 38.8599 9.95654 36.9268 9.76318 34.4131L9.76318 33.8335C9.56982 31.3198 11.5034 29.1934 14.0166 29L14.5967 29C17.4966 29 21.8467 33.3501 21.8467 36.25C21.8467 39.1499 17.4966 38.6665 14.5967 38.6665ZM62.9302 38.6665C60.0298 38.6665 55.6802 39.1499 55.6802 36.25C55.6802 33.3501 60.0298 29 62.9302 29C65.4434 28.8066 67.5698 30.7402 67.7632 33.2534L67.7632 33.8335C67.9565 36.3467 66.0234 38.4731 63.5098 38.6665L62.9302 38.6665Z" fill="#E1191A" fill-opacity="1.000000" fill-rule="nonzero"/>
</svg>
