<svg width="80.000000" height="79.971680" viewBox="0 0 80 79.9717" fill="none" xmlns="http://www.w3.org/2000/svg" xmlns:xlink="http://www.w3.org/1999/xlink">
	<desc>
			Created with Pixso.
	</desc>
	<defs/>
	<path id="Vector" d="M49.2188 75.2842L46.6377 75.2842C45.5488 69.9419 40.8149 65.9092 35.1562 65.9092L16.4062 65.9092C10.7476 65.9092 6.01367 69.9419 4.9248 75.2842L2.34375 75.2842C1.04834 75.2842 0 76.3325 0 77.6279C0 78.9233 1.04834 79.9717 2.34375 79.9717L49.2188 79.9717C50.5142 79.9717 51.5625 78.9233 51.5625 77.6279C51.5625 76.3325 50.5142 75.2842 49.2188 75.2842ZM61.0352 21.2603L41.1479 1.37305C39.3169 -0.45752 36.3491 -0.45752 34.5186 1.37305C32.688 3.20361 32.688 6.17139 34.5186 8.00195L54.4062 27.8896C56.2363 29.7197 59.2046 29.7197 61.0352 27.8896C62.8657 26.0586 62.8657 23.0908 61.0352 21.2603ZM27.8896 54.4058L8.00195 34.5186C6.17188 32.688 3.20361 32.688 1.37305 34.5186C-0.45752 36.3491 -0.45752 39.3169 1.37305 41.1475L21.2603 61.0352C23.0913 62.8652 26.0586 62.8652 27.8896 61.0352C29.7202 59.2046 29.7202 56.2363 27.8896 54.4058ZM11.3154 31.2041L31.2026 11.3169L51.0898 31.2041L31.2026 51.0913L11.3154 31.2041ZM77.9409 67.9688L74.606 64.3496L64.6621 74.2935L67.9971 77.9126C70.7432 80.6582 75.1948 80.6582 77.9409 77.9126C80.6865 75.1665 80.6865 70.7148 77.9409 67.9688ZM55.5552 45.6113C55.9507 44.061 55.6196 42.3613 54.4062 41.1475C52.5752 39.3169 49.6074 39.3169 47.7769 41.1475L41.1479 47.7769C39.3169 49.6074 39.3169 52.5752 41.1479 54.4058C42.3613 55.6196 44.0615 55.9502 45.6118 55.5552L61.3477 70.9785L71.291 61.0347L55.5552 45.6113Z" fill="#E1191A" fill-opacity="1.000000" fill-rule="nonzero"/>
</svg>
