<svg width="80.000000" height="56.000000" viewBox="0 0 80 56" fill="none" xmlns="http://www.w3.org/2000/svg" xmlns:xlink="http://www.w3.org/1999/xlink">
	<desc>
			Created with Pixso.
	</desc>
	<defs/>
	<path id="Vector" d="M63.3853 0L16.6147 0C7.43896 0 0 7.3584 0 16.436L0 39.564C0 48.6416 7.43896 56 16.6147 56L63.3853 56C72.561 56 80 48.6416 80 39.564L80 16.436C80 7.3584 72.561 0 63.3853 0ZM52.1484 29.1255L30.2725 39.4463C29.6895 39.7212 29.0161 39.3008 29.0161 38.6621L29.0161 17.375C29.0161 16.7271 29.7075 16.3071 30.2915 16.6001L52.1675 27.5664C52.8179 27.8921 52.8066 28.8149 52.1484 29.1255Z" fill="#E1191A" fill-opacity="1.000000" fill-rule="nonzero"/>
</svg>
