<svg width="18" height="18" viewBox="0 0 18 18" fill="none" xmlns="http://www.w3.org/2000/svg">
<path fill-rule="evenodd" clip-rule="evenodd" d="M17.2039 15.4651C17.0908 15.5778 16.9544 15.722 16.8098 15.8745C16.449 16.2575 15.9982 16.7336 15.7157 16.9266C14.2291 17.9425 12.2404 17.4564 10.8337 16.8702C8.97804 16.097 6.9577 14.6718 5.14365 12.8574C3.32791 11.0429 1.90287 9.02179 1.12968 7.16707C0.544263 5.75998 0.0571978 3.77077 1.07314 2.28385C1.26606 2.0011 1.74321 1.551 2.12567 1.18945C2.27868 1.04528 2.42171 0.909062 2.5348 0.796329C2.73558 0.596535 3.0073 0.484375 3.29054 0.484375C3.57379 0.484375 3.8455 0.596535 4.04629 0.796329L6.78141 3.5308C6.98108 3.73158 7.09316 4.00324 7.09316 4.28642C7.09316 4.56959 6.98108 4.84125 6.78141 5.04204L6.03632 5.78566C5.78749 6.03269 5.62507 6.35346 5.57323 6.70024C5.5214 7.04703 5.58292 7.40128 5.74863 7.71028C6.77345 9.64462 8.35557 11.2266 10.29 12.2511C10.5989 12.4168 10.9531 12.4782 11.2997 12.4263C11.6464 12.3744 11.967 12.2118 12.2138 11.9629L12.9571 11.2193C13.1579 11.0195 13.4296 10.9073 13.7128 10.9073C13.9961 10.9073 14.2678 11.0195 14.4686 11.2193L17.2039 13.9542C17.4035 14.1549 17.5156 14.4265 17.5156 14.7097C17.5156 14.9928 17.4035 15.2644 17.2039 15.4651Z" fill="white"/>
</svg>
